<svg t="1723799392923" class="icon" viewBox="0 0 1024 1024" version="1.1" xmlns="http://www.w3.org/2000/svg" p-id="37833" width="32" height="32"><path d="M87.68 509.44c-2.56-1.28 4.48-44.16 4.48-49.28 1.28-17.28 1.28-34.56 1.92-51.84 0.64-34.56 0.64-69.12 3.2-103.04 1.92-33.28 8.96-65.92 20.48-97.28 12.16-30.72 33.92-47.36 59.52-67.2C280.32 59.52 407.68-3.84 542.08 8.32c63.36 5.76 123.52 28.16 179.84 56.32 50.56 25.6 103.04 56.96 134.4 105.6 21.12 33.28 31.36 71.68 40.96 110.08 16 62.72 32 128 23.68 192 15.36-2.56 21.76 17.92 22.4 33.28 1.92 74.24 0 149.76-17.28 222.08-4.48 18.56-10.24 37.76-23.04 51.84-12.8 14.08-34.56 21.76-51.84 13.44a598.08 598.08 0 0 1-160 193.28c-9.6 8.32-21.12 15.36-33.28 19.84-17.28 5.12-35.2 3.2-53.12 1.28-73.6-6.4-147.2-5.12-220.8 4.48a57.6 57.6 0 0 1-25.6 0c-7.04-2.56-13.44-6.4-19.2-10.88-64.64-49.28-126.72-131.2-170.24-200.32-21.12 7.04-32 16-50.56-12.16-14.72-23.68-28.8-68.48-35.2-95.36-12.16-56.96-22.4-106.88-21.76-159.36 0-6.4 2.56-12.8 7.04-17.28s12.8-10.88 19.2-7.04z m0 0" fill="#a51806" p-id="37834"></path><path d="M369.28 1015.68c-3.84 0-7.68-0.64-11.52-1.28-7.68-2.56-14.08-6.4-20.48-11.52-72.32-55.04-136.96-147.84-168.96-199.04l-5.76 1.92c-16.64 6.4-28.8 10.88-46.08-16.64-16-24.96-30.08-71.68-35.2-96.64-13.44-60.16-23.04-107.52-21.76-158.72 0-7.04 3.2-14.08 7.68-19.2 3.84-5.76 10.24-8.96 16.64-9.6 0-5.12 1.28-14.72 3.84-32.64 1.28-5.76 1.92-10.88 1.92-12.16 1.28-17.92 1.28-35.2 1.92-51.84v-19.2c0-27.52 0.64-56.32 3.2-84.48 1.28-33.28 8.32-66.56 19.84-97.92 11.52-29.44 32.64-46.08 56.96-65.28l3.84-3.2C261.76 70.4 395.52-8.32 542.72 5.76c56.96 5.12 115.84 23.68 181.12 56.96 51.84 26.24 103.68 57.6 135.04 106.88 21.76 33.92 32 74.88 41.6 110.72 14.72 58.88 32 124.8 24.32 189.44 3.2 0 7.04 1.28 9.6 3.84 8.96 7.04 12.16 22.4 12.16 33.28 1.92 67.2 0.64 146.56-17.28 222.72-4.48 19.2-10.24 38.4-23.68 53.76-12.16 13.44-33.92 23.04-53.12 15.36a597.312 597.312 0 0 1-159.36 191.36c-10.24 8.96-21.76 16-34.56 20.48-16.64 5.12-34.56 3.2-51.84 1.92h-1.92c-72.96-7.68-147.2-6.4-220.16 2.56-5.12 0.64-10.24 0.64-15.36 0.64z m-198.4-219.52l1.28 1.92c32 50.56 96.64 144 169.6 199.68 5.12 4.48 11.52 8.32 17.92 10.24 7.68 1.28 16 1.28 23.68 0 73.6-9.6 148.48-10.24 222.08-2.56h2.56c16.64 1.92 33.92 3.84 49.28-1.28 11.52-4.48 22.4-10.88 32-19.2a592.896 592.896 0 0 0 159.36-192l1.28-2.56 2.56 1.28c16.64 8.32 36.48 0 48-12.8 11.52-12.8 17.92-32 22.4-50.56 17.92-75.52 18.56-154.24 17.28-221.44 0-9.6-3.2-23.04-10.24-28.16-2.56-1.92-5.12-2.56-8.32-1.92l-4.48 0.64 0.64-4.48c8.32-64.64-8.96-131.84-23.68-190.72-8.96-35.84-19.2-75.52-40.96-108.8-30.72-48-81.92-78.72-133.12-104.32C655.36 36.48 597.76 17.92 540.8 12.8c-143.36-14.08-275.84 64-361.6 131.2l-3.84 2.56c-23.68 18.56-43.52 34.56-55.04 62.72-10.88 31.36-17.92 64-19.84 96.64-2.56 28.16-2.56 56.32-3.2 83.84v19.2c0 16.64-0.64 33.92-1.92 51.84 0 1.92-0.64 5.76-1.28 12.16-1.92 12.16-3.2 23.68-3.84 35.84 0-0.64-0.64-1.28-1.28-1.28l-3.2 5.12c-3.84-2.56-10.88 2.56-14.08 6.4-3.84 4.48-6.4 9.6-6.4 15.36-0.64 50.56 8.32 97.28 21.76 157.44 6.4 30.08 21.12 72.96 34.56 94.72 14.72 22.4 22.4 19.84 38.4 14.08 2.56-0.64 5.12-1.92 8.32-2.56l2.56-1.92z m0 0" p-id="37835"></path><path d="M364.8 160c-1.28 35.84-1.28 142.72 37.12 233.6 1.28 3.2 4.48 5.76 7.68 7.04 12.8 3.2 62.08 8.96 163.84-1.92 4.48-0.64 8.32-3.2 10.24-7.68 11.52-30.08 43.52-156.16 46.72-232.32 0-7.04 5.76-12.16 12.8-11.52 1.28 0 2.56 0 3.2 0.64 47.36 16 184.96 69.76 205.44 107.52 0.64 0.64 0.64 1.92 1.28 3.2 2.56 11.52 20.48 91.52 16 291.84v2.56c2.56 12.8 3.84 110.72-6.4 152.32-0.64 2.56-1.92 4.48-3.84 6.4-18.56 16-106.24 104.32-102.4 154.88 0.64 3.84-1.28 7.68-3.84 10.24-10.24 10.24-35.2 40.96-47.36 49.92a16 16 0 0 1-10.88 1.92 43.328 43.328 0 0 1-15.36-7.68 13.44 13.44 0 0 0-8.32-3.2l-284.16 10.24c-3.84 0-16.64 2.56-19.2 5.76-12.16 10.24-16 9.6-22.4 6.4-12.16-5.76-35.2-40.32-42.88-48a11.52 11.52 0 0 1-3.2-4.48c-3.2-8.96-19.84-44.16-104.96-120.96 0 0-46.72-44.16-36.48-198.4v-1.92c-1.28-15.36-18.56-272-4.48-286.08 0 0 143.36-117.76 196.48-132.48 6.4-1.92 13.44 1.92 15.36 8.32v3.84z m0 0" fill="#ea9518" p-id="37836"></path><path d="M352 944.64c-2.56 0-5.12-0.64-7.68-1.92-8.32-4.48-21.76-21.12-32-33.92-5.12-6.4-8.96-11.52-11.52-14.08a13.952 13.952 0 0 1-3.2-5.12c-4.48-12.16-24.32-48-104.96-120.32-1.92-1.92-47.36-46.72-37.12-199.68v-1.28c-3.2-45.44-17.92-273.92-3.84-288 5.76-5.12 144-118.4 197.12-133.12 7.68-1.92 15.36 1.92 17.28 9.6v3.2c-0.64 31.36-1.28 141.44 37.12 232.96 1.28 2.56 3.84 5.12 6.4 5.76 14.72 4.48 65.92 8.96 163.2-1.92 3.84 0 7.04-2.56 8.96-6.4 12.16-30.72 43.52-157.44 46.72-231.04a14.72 14.72 0 0 1 14.72-13.44c1.28 0 2.56 0 3.84 0.64 46.72 16 185.6 69.76 206.72 108.16 0.64 1.28 1.28 1.92 1.28 3.2 3.2 14.08 20.48 93.44 16 292.48v2.56c2.56 12.8 3.84 111.36-6.4 152.96-0.64 2.56-2.56 5.12-4.48 7.04-23.68 19.84-105.6 105.6-101.76 152.96 0.64 4.48-1.28 8.32-3.84 11.52-3.84 3.84-9.6 10.24-15.36 16.64-9.6 12.16-20.48 23.04-32 32.64-3.84 2.56-8.32 3.2-12.16 1.92a47.68 47.68 0 0 1-16-8.32 9.6 9.6 0 0 0-7.04-2.56l-284.8 11.52c-6.4 0-12.16 1.92-17.92 5.12l-0.64 0.64c-7.68 7.04-12.8 9.6-16.64 9.6z m0.64-795.52c-1.28 0-1.92 0-3.2 0.64-51.2 14.72-193.92 131.2-195.2 132.48-10.88 10.24-1.92 191.36 4.48 285.44v1.92c-10.24 151.68 35.84 196.48 36.48 197.12 81.28 72.96 101.12 109.44 105.6 121.6 0.64 1.28 1.28 2.56 2.56 3.84 4.48 4.48 8.32 9.6 11.52 14.08 9.6 12.16 23.04 29.44 30.72 33.28 5.12 2.56 8.96 3.84 20.48-6.4 2.56-4.48 17.28-6.4 20.48-6.4l284.8-11.52c3.84 0 7.04 1.28 9.6 3.2 4.48 3.2 9.6 5.76 15.36 7.68 3.2 1.28 7.04 0.64 9.6-1.28 11.52-9.6 21.76-20.48 31.36-32 6.4-7.04 11.52-13.44 15.36-17.28 2.56-2.56 3.2-5.76 3.2-8.96-4.48-52.48 85.76-141.44 102.4-156.16 1.92-1.28 3.2-3.2 3.84-5.76 10.24-40.96 8.96-138.88 6.4-151.68v-3.2c4.48-198.4-12.8-277.76-16-291.2 0-0.64-0.64-1.92-1.28-2.56-19.2-34.56-145.92-87.04-204.8-106.88-1.28-0.64-1.92-0.64-3.2-0.64-2.56 0-5.76 0.64-7.68 2.56-2.56 2.56-3.84 5.76-3.84 8.32-3.2 76.8-35.2 202.24-46.72 232.32-1.92 4.48-6.4 8.32-11.52 8.96-97.92 10.24-149.12 6.4-163.84 1.28-4.48-1.28-7.68-3.84-8.96-7.68-39.04-92.16-38.4-202.24-37.12-234.24 0-1.28 0-1.92-0.64-3.2a10.944 10.944 0 0 0-10.24-7.68z m0 0" p-id="37837"></path><path d="M153.6 510.72s0-11.52-0.64-11.52c-0.64-0.64 35.2 32 49.92 39.04 0 0 0-42.24 11.52-42.24 0 0 135.68 61.44 208.64 48.64 0 0 3.84 40.96-12.16 54.4 0 0-135.04 19.2-202.88-42.88l-54.4-45.44z m0 0" p-id="37838"></path><path d="M223.36 538.24s27.52 48 198.4 42.24c2.56-11.52 2.56-23.68 0-35.2-2.56-11.52-118.4-8.32-181.12-38.4 0-0.64-19.2 16.64-17.28 31.36z m0 0" fill="#FFFFFF" p-id="37839"></path><path d="M870.4 501.12s0-11.52 0.64-11.52c0.64-0.64-35.2 32-49.92 39.04 0 0 0-42.24-11.52-42.24 0 0-135.68 61.44-208.64 48.64 0 0-3.84 41.6 12.16 54.4 0 0 135.04 19.2 202.88-42.88l54.4-45.44z m0 0" p-id="37840"></path><path d="M800.64 528.64s-27.52 48-198.4 42.24c-2.56-11.52-2.56-23.68 0-35.2 2.56-11.52 118.4-8.32 181.12-38.4 0-0.64 19.2 16.64 17.28 31.36z m0 0" fill="#FFFFFF" p-id="37841"></path><path d="M423.68 545.28s131.84 12.16 177.28-9.6v16s-73.6 20.48-177.28 5.76l-2.56-12.8m340.48 297.6l-54.4 27.52-37.76-24.96-1.92-0.64c-124.16-27.52-277.12 2.56-283.52 3.2h-1.28l-44.8 23.04-50.56-6.4c-0.64-0.64 14.08 27.52 14.08 27.52l38.4 3.2 48.64-27.52c15.36-2.56 158.08-28.16 273.28-3.84l46.72 32 49.28-26.88 3.84-26.24z m-592.64-40.96c-37.12-14.72-81.28-280.32-83.2-291.84l3.2-0.64c0.64 3.2 46.08 275.84 81.28 289.92l-1.28 2.56z m0 0" p-id="37842"></path><path d="M852.48 795.52l-0.64-3.2c47.36-10.88 68.48-316.8 68.48-320h3.2c-1.28 13.44-21.76 312.32-71.04 323.2z m0 0" fill="#21303A" p-id="37843"></path></svg>